<svg xmlns="http://www.w3.org/2000/svg"  viewBox="0 0 100 100" width="50px" height="50px"><path fill="#37A4DC" d="M20,56.667c0,16.568,13.431,30,30,30c16.563,0,30-13.432,30-30c0-8.282-3.359-15.782-8.789-21.212L50,13.333	L28.789,35.455C23.359,40.885,20,48.385,20,56.667z"/><path fill="#E1F3FC" d="M33.503,40.166c-4.408,4.411-6.836,10.27-6.836,16.501C26.667,69.531,37.132,80,50,80	c12.864,0,23.332-10.469,23.332-23.333c0-6.231-2.428-12.09-6.932-16.599L50,22.961L33.503,40.166z"/><path fill="#B4E3F9" d="M66.4,40.068L50,22.961l-2,2.086l14.4,15.02c4.505,4.509,6.933,10.368,6.933,16.599	c0,12.191-9.401,22.224-21.333,23.242C48.66,79.966,49.326,80,50,80c12.864,0,23.332-10.469,23.332-23.333	C73.332,50.436,70.904,44.577,66.4,40.068z"/><path fill="#37A4DC" d="M40,56.667c0,5.521,4.473,10,10,10v6.666c-9.206,0-16.667-7.461-16.667-16.666H40z"/></svg>