<svg xmlns="http://www.w3.org/2000/svg"  viewBox="0 0 48 48" width="48px" height="48px"><path fill="#2196f3" d="M24 4A20 20 0 1 0 24 44A20 20 0 1 0 24 4Z"/><path fill="#1976d2" d="M34.102,35C35.699,35,37,33.699,37,32.102V19.898C37,18.301,35.699,17,34.102,17H13.898 C12.301,17,11,18.301,11,19.898v12.203C11,33.699,12.301,35,13.898,35"/><path fill="#eceff1" d="M34.102,15H13.898C12.301,15,11,16.301,11,17.898v12.203C11,31.699,12.301,33,13.898,33h20.203 C35.699,33,37,31.699,37,30.102V17.898C37,16.301,35.699,15,34.102,15z"/><path fill="#90a4ae" d="M11.801,15.898C11.301,16.398,11,17.101,11,17.8L24,27l13-9.199c0-0.699-0.301-1.402-0.801-1.902 L24,24.602L11.801,15.898z"/></svg>