<svg xmlns="http://www.w3.org/2000/svg"  viewBox="0 0 40 40" width="40px" height="40px"><path fill="none" stroke="#4788c7" stroke-width="2" d="M30,17.5c0,0,0-4.092,0-4.5c0-5.523-4.477-10-10-10S10,7.477,10,13	c0,0.844,0,0.451,0,5.714"/><path fill="#dff0fe" d="M2.5,39.5V24c0-3.584,2.916-6.5,6.5-6.5h22c3.584,0,6.5,2.916,6.5,6.5v15.5H2.5z"/><path fill="#4788c7" d="M31,18c3.308,0,6,2.692,6,6v15H3V24c0-3.308,2.692-6,6-6H31 M31,17H9c-3.866,0-7,3.134-7,7v16h36V24	C38,20.134,34.866,17,31,17L31,17z"/><path fill="#b6dcfe" d="M17.59,34.5l0.891-5.343l-0.289-0.176C17.133,28.336,16.5,27.222,16.5,26c0-1.93,1.57-3.5,3.5-3.5 s3.5,1.57,3.5,3.5c0,1.222-0.633,2.336-1.691,2.981l-0.289,0.176l0.89,5.343H17.59z"/><path fill="#4788c7" d="M20,23c1.654,0,3,1.346,3,3c0,1.046-0.543,2.001-1.452,2.554l-0.578,0.352l0.111,0.667L21.82,34 h-3.64l0.738-4.427l0.111-0.667l-0.578-0.352C17.543,28.001,17,27.046,17,26C17,24.346,18.346,23,20,23 M20,22 c-2.209,0-4,1.791-4,4c0,1.449,0.778,2.707,1.932,3.408L17,35h6l-0.932-5.592C23.222,28.707,24,27.449,24,26 C24,23.791,22.209,22,20,22L20,22z"/></svg>