<svg xmlns="http://www.w3.org/2000/svg"  viewBox="0 0 200 200" width="200px" height="200px"><path d="M39,190c-11.6,0-21-9.4-21-21V87c0-11.6,9.4-21,21-21h1.8c4.8-30.6,31.3-54,63.2-54s58.4,23.4,63.2,54h1.8	c11.6,0,21,9.4,21,21v82c0,11.6-9.4,21-21,21H39z" opacity=".35"/><path fill="#f2f2f2" d="M35,186c-11.6,0-21-9.4-21-21V83c0-11.6,9.4-21,21-21h1.8C41.6,31.4,68.1,8,100,8s58.4,23.4,63.2,54h1.8	c11.6,0,21,9.4,21,21v82c0,11.6-9.4,21-21,21H35z"/><path fill="#9aa2e6" d="M165,75h-14v-3c0-28.2-22.8-51-51-51S49,43.8,49,72v3H35c-4.4,0-8,3.6-8,8v82c0,4.4,3.6,8,8,8h130	c4.4,0,8-3.6,8-8V83C173,78.6,169.4,75,165,75z M63,72c0-20.4,16.6-37,37-37s37,16.6,37,37v3H63V72z"/><path fill="#ffc571" d="M165,174H35c-4.4,0-8-3.6-8-8V86c0-4.4,3.6-8,8-8h130c4.4,0,8,3.6,8,8v80C173,170.4,169.4,174,165,174z"/><path fill="none" stroke="#40396e" stroke-linecap="round" stroke-linejoin="round" stroke-miterlimit="20" stroke-width="6" d="M165,75h-14v-3c0-28.2-22.8-51-51-51S49,43.8,49,72v3H35c-4.4,0-8,3.6-8,8v82c0,4.4,3.6,8,8,8h130	c4.4,0,8-3.6,8-8V83C173,78.6,169.4,75,165,75z M63,72c0-20.4,16.6-37,37-37s37,16.6,37,37v3H63V72z"/><circle cx="100" cy="116" r="12" fill="#40396e"/><rect width="12" height="22" x="94" y="124" fill="#40396e"/></svg>