<svg xmlns="http://www.w3.org/2000/svg"  viewBox="0 0 48 48" width="96px" height="96px" baseProfile="basic"><path fill="#12d9e3" d="M44.811,30.521C44.509,29.968,37.263,17,24,17S3.491,29.968,3.189,30.521	c-0.164,0.299-0.164,0.66,0,0.959C3.491,32.032,10.737,45,24,45s20.509-12.968,20.811-13.521	C44.975,31.181,44.975,30.819,44.811,30.521z"/><path fill="#324561" d="M24,41c-5.514,0-10-4.486-10-10s4.486-10,10-10s10,4.486,10,10S29.514,41,24,41z M24,23	c-4.411,0-8,3.589-8,8s3.589,8,8,8s8-3.589,8-8S28.411,23,24,23z"/><path fill="#324561" d="M24,35c-2.206,0-4-1.794-4-4c0-0.328,0.04-0.656,0.119-0.975c0.134-0.537,0.675-0.859,1.212-0.729	c0.536,0.134,0.862,0.677,0.729,1.212C22.021,30.669,22,30.834,22,31c0,1.103,0.897,2,2,2s2-0.897,2-2s-0.897-2-2-2	c-0.553,0-1-0.447-1-1s0.447-1,1-1c2.206,0,4,1.794,4,4S26.206,35,24,35z"/><path fill="#324561" d="M41,20h-3c-0.553,0-1-0.447-1-1s0.447-1,1-1h3c0.552,0,1-0.448,1-1V7c0-0.552-0.448-1-1-1H7	C6.448,6,6,6.448,6,7v10c0,0.552,0.448,1,1,1h3c0.553,0,1,0.447,1,1s-0.447,1-1,1H7c-1.654,0-3-1.346-3-3V7c0-1.654,1.346-3,3-3h34	c1.654,0,3,1.346,3,3v10C44,18.654,42.654,20,41,20z"/><path fill="#324561" d="M22,15c-0.256,0-0.512-0.098-0.707-0.293c-0.391-0.391-0.391-1.023,0-1.414l4-4	c0.391-0.391,1.023-0.391,1.414,0s0.391,1.023,0,1.414l-4,4C22.512,14.902,22.256,15,22,15z"/><path fill="#324561" d="M26,15c-0.256,0-0.512-0.098-0.707-0.293l-4-4c-0.391-0.391-0.391-1.023,0-1.414s1.023-0.391,1.414,0	l4,4c0.391,0.391,0.391,1.023,0,1.414C26.512,14.902,26.256,15,26,15z"/><path fill="#324561" d="M31,15c-0.256,0-0.512-0.098-0.707-0.293c-0.391-0.391-0.391-1.023,0-1.414l4-4	c0.391-0.391,1.023-0.391,1.414,0s0.391,1.023,0,1.414l-4,4C31.512,14.902,31.256,15,31,15z"/><path fill="#324561" d="M35,15c-0.256,0-0.512-0.098-0.707-0.293l-4-4c-0.391-0.391-0.391-1.023,0-1.414s1.023-0.391,1.414,0	l4,4c0.391,0.391,0.391,1.023,0,1.414C35.512,14.902,35.256,15,35,15z"/><path fill="#324561" d="M13,15c-0.256,0-0.512-0.098-0.707-0.293c-0.391-0.391-0.391-1.023,0-1.414l4-4	c0.391-0.391,1.023-0.391,1.414,0s0.391,1.023,0,1.414l-4,4C13.512,14.902,13.256,15,13,15z"/><path fill="#324561" d="M17,15c-0.256,0-0.512-0.098-0.707-0.293l-4-4c-0.391-0.391-0.391-1.023,0-1.414s1.023-0.391,1.414,0	l4,4c0.391,0.391,0.391,1.023,0,1.414C17.512,14.902,17.256,15,17,15z"/></svg>