<svg height="561.627" viewBox="0 0 688.961 561.627" width="688.961" xmlns="http://www.w3.org/2000/svg"><path d="m123.983 548.632c-9.33 2.262-18.748-3.48-21.01-12.809l-89.978-371.046c-2.262-9.33 3.48-18.748 12.809-21.01l539.174-130.748c9.33-2.262 18.748 3.48 21.011 12.809l89.977 371.046c2.262 9.33-3.48 18.748-12.809 21.01z" fill="#57b279"/><path d="m568.021 25.143c2.624-.636 5.28.983 5.917 3.607l89.977 371.046c.636 2.624-.983 5.28-3.607 5.917l-539.271 130.771c-2.624.636-5.28-.983-5.917-3.607l-89.977-371.046c-.636-2.624.983-5.28 3.607-5.917zm-5.892-24.296-539.27 130.771c-16.035 3.888-25.9 20.069-22.011 36.104l89.977 371.046c3.888 16.035 20.069 25.9 36.104 22.011l539.174-130.747c16.035-3.888 25.9-20.069 22.011-36.104l-89.977-371.046c-3.791-16.059-19.972-25.923-36.007-22.035z" fill="#006"/><g fill="#fff"><circle cx="84.62" cy="184.679" r="6.529"/><circle cx="105.66" cy="179.574" r="6.529"/><circle cx="126.699" cy="174.47" r="6.529"/><path d="m131.265 359.855-18.281-11.142 11.142-18.281 4.27 2.602-8.541 14.012 14.011 8.539z"/><path d="m418.092 347.084-179.516 43.554 13.635 56.2 208.817-50.663.215-4.184-38.148-43.617z"/></g><path d="m423.887 368.061-1.695 5.737 9.496 2.558-7.268 6.625 4.118 4.25 7.197-6.918 2.191 9.348 5.539-1.344-2.354-9.385 6.562 1.974.669-4.665-12.176-13.923-4.917-.191 2.223 8.857z" fill="#57b279"/><path d="m679.189 412.093-103.337-397.383-366.15 94.107 303.498 347.011z" fill="#006"/><path d="m387.968 177.487-1.905-10.289-5.117.302c-2.715.161-5.472.242-8.194.242-21.76 0-43.516-5.203-62.913-15.047l-1.526-.774-1.001 1.387c-8.646 11.979-19.133 22.475-31.171 31.193-3.25 2.354-6.57 4.555-9.868 6.54-5.002 3.012-10.176 5.707-15.378 8.011l-4.687 2.076 3.022 10.018c7.012 23.246 19.625 44.772 36.476 62.251 16.708 17.331 37.565 30.657 60.316 38.538l1.215.421.887-.931c6.894-7.235 13.155-15.287 18.609-23.93 1.609-2.551 3.025-4.926 4.327-7.261 5.469-9.805 9.847-20.135 13.014-30.704 6.967-23.257 8.313-48.17 3.893-72.045z" fill="#006"/><path d="m356.856 189.757-8.345-2.859-19.719 57.552-1.508-1.193 8.078 9.235.537-1.568z" fill="#57b279"/><path d="m479.692 332.139-61.6 14.945 42.936 49.091 32.299-7.836z" fill="#57b279"/><path d="m450.768 381.837 1.64-5.646-9.423-2.576 7.195-6.607-4.063-4.34-7.234 7.081-2.208-9.421-5.54 1.344.114.455 16.424 18.779z" fill="#006"/><path d="m301.579 407.923 9.423 2.576-1.64 5.646-9.658-2.905 2.354 9.385-5.539 1.344-2.191-9.348-7.197 6.917-4.118-4.249 7.268-6.625-9.496-2.558 1.695-5.737 9.584 2.923-2.337-9.312 5.539-1.344 2.208 9.421 7.235-7.081 4.063 4.34-7.195 6.607z" fill="#57b279"/><path d="m348.714 396.487 9.423 2.576-1.64 5.646-9.658-2.905 2.354 9.385-5.539 1.344-2.191-9.348-7.197 6.917-4.118-4.249 7.268-6.625-9.496-2.558 1.695-5.737 9.584 2.923-2.337-9.312 5.539-1.344 2.208 9.421 7.235-7.081 4.063 4.34-7.195 6.607z" fill="#57b279"/><path d="m395.85 385.051 9.423 2.576-1.64 5.646-9.658-2.905 2.354 9.385-5.539 1.344-2.191-9.348-7.197 6.917-4.118-4.249 7.268-6.625-9.496-2.558 1.695-5.737 9.584 2.923-2.337-9.312 5.539-1.344 2.208 9.421 7.235-7.081 4.063 4.34-7.195 6.607z" fill="#57b279"/><path d="m563.149 255.072-4.27-2.602 8.54-14.012-14.011-8.54 2.602-4.269 18.28 11.142z" fill="#57b279"/><path d="m320.868 238.178-25.487-20.174-5.475 6.917 38.3 30.317c1.067.845 2.461 1.147 3.777.828.068-.016.135-.034.203-.054 1.374-.404 2.466-1.449 2.93-2.803l.245-.716-.6-5.829-3.068-3.508-2.298 2.516-2.112-2.414-6.417-5.079z" fill="#fff"/><path d="m356.856 189.757-8.345-2.859-19.719 57.552-1.508-1.193 8.078 9.235.537-1.568z" fill="#57b279"/><path d="m346.677 310.047c-22.46-7.78-43.034-20.924-59.531-38.037-16.632-17.252-29.081-38.498-36.001-61.44l-2.512-8.327 3.072-1.361c5.382-2.383 10.586-5.107 15.6-8.126 3.434-2.068 6.769-4.287 10.01-6.634l1.164-4.099-4.229-4.835-4.352.455c-3.751 2.672-7.645 5.15-11.671 7.415-3.592 2.021-7.282 3.881-11.07 5.559l-8.899 3.941c-1.85.819-2.8 2.888-2.215 4.824l4.353 14.428c15.149 50.222 53.564 90.07 103.198 107.048l3.805 1.302c1.475.504 3.11.108 4.19-1.017l2.785-2.901c6.874-7.157 13.008-14.863 18.382-22.996l.275-3.972-4.366-4.992-3.622.146c-5.331 8.448-11.473 16.384-18.366 23.618z" fill="#fff"/><path d="m397.042 175.806-2.744-14.818c-.368-1.989-2.16-3.392-4.18-3.273l-9.713.575c-23.171 1.371-46.285-3.498-66.933-14.099l-4.954-2.544c-1.77-.908-3.938-.382-5.094 1.236l-3.238 4.531c-8.385 11.735-18.637 21.932-30.288 30.229l7.417 8.48c12.108-8.769 22.808-19.433 31.62-31.643 22.269 11.301 47.195 16.493 72.13 15.018l3.354-.198 1.583 8.552c4.363 23.563 3.034 48.151-3.843 71.107-3.155 10.532-7.489 20.703-12.844 30.303-1.355 2.429-2.788 4.815-4.272 7.167l7.713 8.818c1.856-2.809 3.625-5.668 5.298-8.575 19.085-33.166 26.107-72.415 18.988-110.866z" fill="#57b279"/></svg>